<svg xmlns="http://www.w3.org/2000/svg" viewBox="0 0 381.12 496.11"><defs><style>.cls-1{fill:#030000;}.cls-2,.cls-3{fill:none;}.cls-3{stroke:#fff;stroke-miterlimit:10;stroke-width:18.89px;}</style></defs><g id="레이어_2" data-name="레이어 2"><g id="LOGO"><path class="cls-1" d="M177.91,12.45,337.34,171.88A159.43,159.43,0,0,0,177.91,12.45Z"/><polygon class="cls-1" points="177.91 12.45 177.91 171.88 277.15 111.69 177.91 12.45"/><path class="cls-1" d="M177.91,171.88V331.3a159.28,159.28,0,0,0,49.62-7.88V141.78Z"/><path class="cls-1" d="M337.34,171.88l-60.19-60.19-49.62,30.09V323.42A159.49,159.49,0,0,0,337.34,171.88Z"/><path class="cls-2" d="M155.24,435.36H33.75a60.75,60.75,0,1,0,121.49,0Z"/><path class="cls-2" d="M94.49,374.61a60.74,60.74,0,0,0-60.74,60.75H155.24A60.75,60.75,0,0,0,94.49,374.61Z"/><path class="cls-1" d="M155.24,73.2V12.45H94.49A60.75,60.75,0,0,0,33.74,73.2V259.32l121.5-73.69Z"/><path class="cls-1" d="M33.74,259.32V496.11H94.49a60.75,60.75,0,0,0,60.75-60.75h0V185.63Z"/><line class="cls-3" x1="277.15" y1="111.69" x2="4.9" y2="276.82"/><line class="cls-3" x1="374.44" y1="208.98" x2="172.14" y2="6.68"/><line class="cls-3" x1="227.53" y1="141.78" x2="227.53" y2="340.87"/></g></g></svg>